<svg xmlns="http://www.w3.org/2000/svg" viewBox="0 0 128 128">
  <defs>
    <linearGradient id="neon" x1="0" x2="1">
      <stop offset="0" stop-color="#4FD1FF"/><stop offset="1" stop-color="#6AA6FF"/>
    </linearGradient>
    <radialGradient id="roeBase" cx="35%" cy="35%" r="70%">
      <stop offset="0"   stop-color="#FFC49B"/>
      <stop offset="0.45" stop-color="#FF8A4D"/>
      <stop offset="0.78" stop-color="#E24B1D"/>
      <stop offset="1"   stop-color="#9F1C14"/>
    </radialGradient>
    <radialGradient id="roeCore" cx="38%" cy="32%" r="55%">
      <stop offset="0"   stop-color="#FFE3CF" stop-opacity="0.55"/>
      <stop offset="0.55" stop-color="#FF9A61" stop-opacity="0.22"/>
      <stop offset="1"   stop-color="#FF6B3D" stop-opacity="0"/>
    </radialGradient>
    <filter id="soft" x="-50%" y="-50%" width="200%" height="200%">
      <feGaussianBlur stdDeviation="1.2"/>
    </filter>
  </defs>

  <rect width="128" height="128" rx="28" fill="#0E1624"/>
  <circle cx="64" cy="64" r="54" fill="none" stroke="url(#neon)" stroke-width="3"/>

  <ellipse cx="82" cy="86" rx="28" ry="10" fill="#FF6B3D" opacity="0.16" filter="url(#soft)"/>

  <g>
    <circle cx="78" cy="76" r="14" fill="url(#roeBase)"/>
    <circle cx="78" cy="76" r="13.5" fill="url(#roeCore)"/>
    <circle cx="78" cy="76" r="14" fill="none" stroke="#812012" stroke-opacity=".55" stroke-width="1"/>
    <ellipse cx="73.7" cy="71.8" rx="5.2" ry="3.2" fill="#fff" opacity=".28" filter="url(#soft)"/>
    <circle cx="74.6" cy="71.0" r="1.4" fill="#fff" opacity=".7"/>
  </g>
  <g>
    <circle cx="94" cy="86" r="10.8" fill="url(#roeBase)"/>
    <circle cx="94" cy="86" r="10.3" fill="url(#roeCore)"/>
    <circle cx="94" cy="86" r="10.8" fill="none" stroke="#812012" stroke-opacity=".55" stroke-width=".95"/>
    <ellipse cx="90.9" cy="82.9" rx="3.8" ry="2.5" fill="#fff" opacity=".26" filter="url(#soft)"/>
    <circle cx="91.7" cy="82.3" r="1.0" fill="#fff" opacity=".75"/>
  </g>
  <g>
    <circle cx="66" cy="86" r="12" fill="url(#roeBase)"/>
    <circle cx="66" cy="86" r="11.5"  fill="url(#roeCore)"/>
    <circle cx="66" cy="86" r="12" fill="none" stroke="#812012" stroke-opacity=".55" stroke-width=".95"/>
    <ellipse cx="62.6" cy="82.8" rx="4.2" ry="2.6" fill="#fff" opacity=".25" filter="url(#soft)"/>
    <circle cx="63.4" cy="82.1" r="1.05" fill="#fff" opacity=".75"/>
  </g>
</svg>